<svg width="224" height="224" viewBox="0 0 224 224" fill="none" xmlns="http://www.w3.org/2000/svg">
<g clip-path="url(#clip0_4_2)">
<path d="M98.31 0C95.87 1.20667 93.35 1.38667 90.75 0.54" stroke="#79174B" stroke-width="2"/>
<path d="M118.06 0C117.993 0.08 117.933 0.16 117.88 0.24C117.76 0.426667 117.81 0.54 118.03 0.58C120.35 1.02 122.673 1.06333 125 0.71" stroke="#79174B" stroke-width="2"/>
<path d="M30.25 23.54C83.98 3.25 142.35 6.12 196.83 22.48C197.097 22.56 197.23 22.7367 197.23 23.01L197.25 54.91C197.25 55.3433 197.47 55.5467 197.91 55.52L199.34 55.43C199.78 55.4033 200 55.17 200 54.73V21.48C200 21.2138 199.915 20.9549 199.759 20.7408C199.602 20.5268 199.382 20.3689 199.13 20.29C145.67 3.46 82.03 -0.52 29.06 21.06C28.2867 21.3733 27.8633 21.9367 27.79 22.75" stroke="#79174B" stroke-width="2"/>
<path d="M41.79 88.94C46.48 88.62 53.79 85.46 53.62 79.79C53.5 75.92 51.29 75.13 48.6 73.07C48.3333 72.87 48.3233 72.66 48.57 72.44C49.76 71.38 51.19 70.37 51.58 68.77C54.88 55.15 22.43 58.19 15.73 58.58C15.37 58.6 15.13 58.78 15.01 59.12C14.6633 60.1133 14.49 61.16 14.49 62.26C14.45 81.2333 14.4667 100.223 14.54 119.23C14.54 119.577 14.71 119.75 15.05 119.75H26.75C27.25 119.75 27.5 119.5 27.5 119V110.22C27.5012 109.964 27.5788 109.714 27.7227 109.502C27.8667 109.29 28.0703 109.126 28.3073 109.031C28.5443 108.936 28.8037 108.915 29.052 108.97C29.3003 109.025 29.5261 109.154 29.7 109.34L37.89 117.99C38.2433 118.363 38.1633 118.543 37.65 118.53L30.12 118.42C29.7267 118.413 29.44 118.583 29.26 118.93L14.37 147.25C14.2835 147.416 14.2414 147.601 14.2479 147.787C14.2544 147.974 14.3091 148.156 14.4069 148.315C14.5046 148.474 14.6419 148.605 14.8055 148.696C14.969 148.786 15.1532 148.832 15.34 148.83L28.04 148.71C28.3933 148.71 28.6467 148.55 28.8 148.23L31.51 142.46C31.6767 142.107 31.9567 141.93 32.35 141.93L42.35 142.03C42.71 142.037 42.97 142.2 43.13 142.52L45.96 148.16C46.16 148.553 46.4833 148.75 46.93 148.75H61.01C61.0933 148.751 61.1751 148.729 61.2473 148.688C61.3196 148.646 61.3799 148.586 61.4222 148.514C61.4646 148.441 61.4876 148.358 61.4889 148.273C61.4903 148.189 61.47 148.105 61.43 148.03L46.39 120.22C46.21 119.887 46.31 119.72 46.69 119.72H62.73C63.0767 119.72 63.25 119.893 63.25 120.24V148.25C63.25 148.583 63.4167 148.75 63.75 148.75H76C76.1326 148.75 76.2598 148.697 76.3535 148.604C76.4473 148.51 76.5 148.383 76.5 148.25V133.78C76.5 133.107 76.7333 133.013 77.2 133.5L91.32 148.34C91.5733 148.613 91.8867 148.75 92.26 148.75H105C105.333 148.75 105.5 148.583 105.5 148.25V120.02C105.5 119.7 105.66 119.54 105.98 119.54L119.2 119.68C119.323 119.681 119.445 119.658 119.559 119.611C119.673 119.565 119.777 119.496 119.864 119.408C119.951 119.321 120.021 119.217 120.068 119.102C120.116 118.987 120.14 118.864 120.14 118.74V111.98C120.14 111.72 120.038 111.471 119.856 111.287C119.674 111.103 119.427 111 119.17 111H102.5C102.167 111 102 110.833 102 110.5V108.88C102 108.46 102.207 108.25 102.62 108.25H117.75C118.25 108.25 118.5 108 118.5 107.5V100.12C118.5 99.7067 118.29 99.5 117.87 99.5H102.7C102.427 99.5 102.237 99.3733 102.13 99.12C101.717 98.1733 101.923 97.7067 102.75 97.72C107.923 97.7933 113.13 97.79 118.37 97.71C118.737 97.71 118.93 97.5267 118.95 97.16C119.01 96.01 118.44 89.57 119.89 89.85C120.13 89.8967 120.25 90.0433 120.25 90.29V97.37C120.25 97.79 120.457 98 120.87 98H131.74C132.06 98 132.22 98.1633 132.22 98.49L132.21 117.9C132.21 118.3 132.007 118.5 131.6 118.5H129.38C128.967 118.5 128.76 118.707 128.76 119.12L128.73 148.29C128.73 148.42 128.782 148.545 128.874 148.636C128.965 148.728 129.09 148.78 129.22 148.78H141.77C141.834 148.78 141.897 148.767 141.956 148.742C142.015 148.717 142.068 148.68 142.113 148.633C142.158 148.586 142.193 148.531 142.216 148.471C142.24 148.41 142.251 148.345 142.25 148.28L142 133.27C142.001 133.231 142.013 133.193 142.035 133.16C142.057 133.128 142.088 133.103 142.124 133.088C142.16 133.073 142.2 133.069 142.238 133.077C142.277 133.084 142.312 133.103 142.34 133.13L156.58 148.08C157.04 148.56 157.6 148.8 158.26 148.8L170.21 148.77C170.503 148.77 170.657 148.62 170.67 148.32C170.99 138.66 171.027 129 170.78 119.34C170.67 114.86 171.36 110.51 171.78 106.08C171.82 105.613 171.937 105.593 172.13 106.02L177.36 117.6C177.48 117.853 177.443 118.083 177.25 118.29C175.64 119.97 176.52 147.23 176.52 148.06C176.527 148.513 176.76 148.74 177.22 148.74L208.1 148.77C208.513 148.77 208.723 148.563 208.73 148.15L208.8 140.75C208.8 140.417 208.637 140.25 208.31 140.25H191.25C190.917 140.25 190.75 140.083 190.75 139.75V119C190.75 118.667 190.583 118.5 190.25 118.5H188.93C188.497 118.5 188.377 118.307 188.57 117.92L195.13 105.1C195.53 104.313 195.757 104.36 195.81 105.24L196.57 118.81C196.597 119.33 196.867 119.593 197.38 119.6L207.95 119.81C208.403 119.817 208.64 119.593 208.66 119.14C209.033 109.793 208.667 100.477 207.56 91.19C207.46 90.27 207.51 90.22 208.28 89.81C208.587 89.65 208.74 89.3967 208.74 89.05L208.77 58.89C208.77 58.4633 208.56 58.25 208.14 58.25H196.11C195.683 58.25 195.47 58.4633 195.47 58.89L195.56 73.03C195.56 73.2433 195.49 73.2733 195.35 73.12L181.71 58.64C181.47 58.38 181.173 58.25 180.82 58.25H166.89C166.477 58.25 166.27 58.4533 166.27 58.86L166.2 88.69C166.2 88.7985 166.179 88.906 166.137 89.0061C166.096 89.1063 166.035 89.1971 165.959 89.2734C165.883 89.3497 165.792 89.4099 165.693 89.4505C165.594 89.4911 165.487 89.5113 165.38 89.51C164.64 89.5 164.17 89.16 163.81 88.49C158.543 78.5967 153.263 68.6733 147.97 58.72C147.803 58.4067 147.543 58.25 147.19 58.25H131.9C131.749 58.2498 131.6 58.2915 131.47 58.3708C131.34 58.4501 131.232 58.5639 131.16 58.7L115.39 89.13C115.3 89.3017 115.155 89.4383 114.978 89.5181C114.801 89.5979 114.602 89.6163 114.414 89.5703C114.225 89.5243 114.058 89.4166 113.937 89.2644C113.817 89.1121 113.751 88.924 113.75 88.73V58.87C113.75 58.4567 113.54 58.25 113.12 58.25H99.95C99.8227 58.25 99.7006 58.3006 99.6106 58.3906C99.5206 58.4806 99.47 58.6027 99.47 58.73L99.51 88.77C99.5128 88.9127 99.4691 89.052 99.3852 89.167C99.3014 89.282 99.1821 89.3666 99.0449 89.4081C98.9078 89.4497 98.7602 89.4461 98.6241 89.3978C98.4881 89.3495 98.3709 89.259 98.29 89.14C95.39 84.81 93.76 78.94 90.26 75.55C89.98 75.2833 90.01 75.0567 90.35 74.87C93.43 73.2 96.22 70.15 95.16 66.38C92.04 55.31 67.08 58.09 58.98 58.58C57.8267 58.6533 57.25 59.27 57.25 60.43L57.27 88.8C57.27 89.1667 57.0867 89.3433 56.72 89.33C51.74 89.15 46.72 89.25 41.77 89.24C38.8367 89.24 38.8433 89.14 41.79 88.94Z" stroke="#79174B" stroke-width="2"/>
<path d="M125.75 143.87C125.737 142.399 124.886 140.994 123.384 139.967C121.882 138.939 119.853 138.372 117.742 138.39C116.696 138.399 115.663 138.552 114.699 138.839C113.736 139.127 112.862 139.543 112.127 140.065C111.393 140.587 110.812 141.204 110.418 141.88C110.024 142.557 109.824 143.281 109.83 144.009C109.843 145.481 110.694 146.886 112.196 147.913C113.698 148.941 115.727 149.508 117.838 149.49C118.884 149.481 119.917 149.328 120.881 149.041C121.844 148.753 122.718 148.337 123.453 147.815C124.187 147.293 124.768 146.676 125.162 146C125.556 145.323 125.756 144.599 125.75 143.87Z" stroke="#79174B" stroke-width="2"/>
<path d="M115.21 212.5C115.683 213.473 116.54 213.737 117.78 213.29C148.51 202.16 177.76 183.5 196.23 156.44C196.51 156.027 196.427 155.71 195.98 155.49L194.82 154.92C194.467 154.747 194.173 154.82 193.94 155.14C174.89 181.92 146.23 200.18 115.78 211.2C115.627 211.26 115.533 211.37 115.5 211.53C115.467 211.663 115.397 211.737 115.29 211.75" stroke="#79174B" stroke-width="2"/>
<path d="M37.29 67.35C36 66.18 30.72 66.42 29.31 66.57C28.9367 66.61 28.75 66.82 28.75 67.2V68.72C28.75 69 28.89 69.1567 29.17 69.19C31.8967 69.49 34.54 69.1967 37.1 68.31C37.1929 68.2768 37.2755 68.2201 37.3399 68.1454C37.4043 68.0707 37.4482 67.9806 37.4674 67.8839C37.4865 67.7872 37.4802 67.6871 37.4491 67.5935C37.4181 67.5 37.3632 67.416 37.29 67.35Z" stroke="#79174B" stroke-width="2"/>
<path d="M79.47 66.95L72.33 66.4C71.9433 66.3733 71.75 66.55 71.75 66.93V69.99C71.75 70.3233 71.92 70.4967 72.26 70.51C73.78 70.56 81.21 70.96 80.69 68.06C80.6377 67.7649 80.4895 67.4956 80.2686 67.2946C80.0477 67.0936 79.7667 66.9724 79.47 66.95Z" stroke="#79174B" stroke-width="2"/>
<path d="M140.72 74.39C140.887 74.49 141.063 74.5267 141.25 74.5C141.537 74.4533 141.617 74.3 141.49 74.04L139.6 70.2C139.413 69.82 139.223 69.82 139.03 70.2L137.35 73.6C137.137 74.0333 137.273 74.25 137.76 74.25H140.21C140.397 74.25 140.567 74.2967 140.72 74.39Z" stroke="#79174B" stroke-width="2"/>
<path d="M194.37 88.9L179.98 73.68C179.787 73.4733 179.69 73.5133 179.69 73.8L179.78 88.84C179.78 88.9621 179.756 89.0831 179.709 89.1959C179.662 89.3087 179.594 89.4112 179.508 89.4976C179.421 89.584 179.319 89.6525 179.206 89.6992C179.093 89.7459 178.972 89.77 178.85 89.77H177.76C177.247 89.77 177.1 90 177.32 90.46L183.7 103.89C183.86 104.237 184.023 104.24 184.19 103.9C186.403 99.4133 188.667 94.9367 190.98 90.47C191.673 89.1367 192.637 88.8267 193.87 89.54C193.956 89.5896 194.056 89.6065 194.153 89.5877C194.251 89.5689 194.338 89.5156 194.399 89.4376C194.459 89.3596 194.49 89.2623 194.485 89.1635C194.48 89.0647 194.439 88.9711 194.37 88.9Z" stroke="#79174B" stroke-width="2"/>
<path d="M38.16 78.8C35.08 77.92 32.8 77.28 29.5 77.91C29.1667 77.97 29 78.17 29 78.51V81.29C29 81.69 29.2033 81.8867 29.61 81.88C32.16 81.8 38.76 81.84 38.49 79.19C38.4633 78.99 38.3533 78.86 38.16 78.8Z" stroke="#79174B" stroke-width="2"/>
<path d="M78.08 79.88C78.055 79.8298 78.0184 79.7864 77.9732 79.7533C77.9279 79.7203 77.8754 79.6985 77.82 79.69L72.16 78.7C72.1093 78.6912 72.0572 78.6936 72.0076 78.7072C71.9579 78.7208 71.9119 78.7452 71.8727 78.7786C71.8336 78.812 71.8023 78.8537 71.7811 78.9006C71.7598 78.9475 71.7492 78.9985 71.75 79.05V88.93C71.75 89.0228 71.7869 89.1119 71.8525 89.1775C71.9182 89.2431 72.0072 89.28 72.1 89.28L82.05 89.34C82.1094 89.3406 82.1679 89.3262 82.2202 89.298C82.2724 89.2697 82.3166 89.2287 82.3486 89.1787C82.3806 89.1287 82.3993 89.0714 82.4031 89.0121C82.4068 88.9529 82.3955 88.8936 82.37 88.84L78.08 79.88Z" stroke="#79174B" stroke-width="2"/>
<path d="M133.93 82.75C133.874 82.7501 133.818 82.7661 133.771 82.7961C133.723 82.8262 133.684 82.8691 133.66 82.92L130.8 88.85C130.778 88.8957 130.768 88.9462 130.771 88.9969C130.774 89.0475 130.789 89.0966 130.816 89.1395C130.843 89.1825 130.881 89.2179 130.925 89.2425C130.969 89.267 131.019 89.2799 131.07 89.28L147.91 89.24C147.961 89.2391 148.011 89.2251 148.056 89.1993C148.1 89.1735 148.137 89.1368 148.163 89.0927C148.189 89.0485 148.203 88.9985 148.205 88.9473C148.206 88.896 148.194 88.8453 148.17 88.8L145.13 82.91C145.105 82.8625 145.068 82.8226 145.022 82.7945C144.976 82.7663 144.924 82.751 144.87 82.75H133.93Z" stroke="#79174B" stroke-width="2"/>
<path d="M88.5 119.07V90.37C88.5 89.95 88.29 89.75 87.87 89.77L85.04 89.89C84.68 89.9033 84.5 90.0933 84.5 90.46V97.25C84.5 97.5833 84.3333 97.75 84 97.75H68.13C67.71 97.75 67.5 97.96 67.5 98.38V99.13C67.5 99.5567 67.71 99.77 68.13 99.77L82.86 99.72C83.2867 99.72 83.5 99.9333 83.5 100.36V107.75C83.5 108.083 83.3333 108.25 83 108.25H68C67.6667 108.25 67.5 108.417 67.5 108.75V110.54C67.5 110.9 67.68 111.08 68.04 111.08L84.9 111.3C85.3 111.307 85.5 111.507 85.5 111.9V118.87C85.5 119.29 85.2933 119.5 84.88 119.5H79.82C79.2667 119.5 79.1833 119.697 79.57 120.09L91.94 132.85C92.1467 133.063 92.25 133.023 92.25 132.73V120.05C92.25 119.57 92.0133 119.367 91.54 119.44L89.32 119.77C88.7733 119.85 88.5 119.617 88.5 119.07Z" stroke="#79174B" stroke-width="2"/>
<path d="M157.56 97.34C157.561 97.4262 157.545 97.5118 157.513 97.5918C157.481 97.6718 157.434 97.7447 157.373 97.8061C157.313 97.8675 157.241 97.9163 157.161 97.9496C157.082 97.9829 156.996 98 156.91 98H146.02C145.7 98 145.54 98.16 145.54 98.48L145.42 120.04C145.42 120.347 145.527 120.607 145.74 120.82L157.31 132.51C157.537 132.743 157.65 132.697 157.65 132.37C157.743 118.35 158.8 104.4 160.82 90.52C160.887 90.0667 160.693 89.8333 160.24 89.82L158.13 89.73C157.683 89.71 157.463 89.9233 157.47 90.37L157.56 97.34Z" stroke="#79174B" stroke-width="2"/>
<path d="M27.36 98.25C27.3576 98.3112 27.3734 98.3718 27.4054 98.4241C27.4374 98.4764 27.4842 98.518 27.5398 98.5437C27.5955 98.5693 27.6575 98.5779 27.7181 98.5684C27.7786 98.5588 27.835 98.5316 27.88 98.49L36.5 90.56C36.546 90.5185 36.5785 90.4641 36.5933 90.4038C36.6081 90.3436 36.6045 90.2804 36.583 90.2222C36.5614 90.1641 36.523 90.1137 36.4725 90.0777C36.4221 90.0416 36.362 90.0215 36.3 90.02L28.19 89.86C28.1111 89.8598 28.0352 89.8897 27.9776 89.9436C27.92 89.9975 27.8851 90.0713 27.88 90.15L27.36 98.25Z" stroke="#79174B" stroke-width="2"/>
<path d="M53.38 117C53.4228 117.043 53.4772 117.073 53.5367 117.085C53.5961 117.098 53.6579 117.092 53.7143 117.07C53.7707 117.048 53.8194 117.009 53.8542 116.959C53.889 116.91 53.9084 116.851 53.91 116.79L54.06 91.59C54.0591 91.5324 54.0422 91.4762 54.0111 91.4277C53.98 91.3792 53.9361 91.3404 53.8842 91.3154C53.8323 91.2905 53.7744 91.2806 53.7172 91.2867C53.6599 91.2928 53.6055 91.3147 53.56 91.35L39.35 102.47C39.3142 102.497 39.2847 102.531 39.2634 102.571C39.2422 102.61 39.2297 102.653 39.2268 102.698C39.224 102.743 39.2308 102.787 39.2469 102.829C39.263 102.871 39.2879 102.909 39.32 102.94L53.38 117Z" stroke="#79174B" stroke-width="2"/>
<path d="M35.26 133.52C35.2364 133.57 35.2259 133.626 35.2295 133.681C35.2331 133.737 35.2507 133.791 35.2807 133.838C35.3106 133.884 35.3519 133.923 35.4007 133.95C35.4496 133.976 35.5044 133.99 35.56 133.99L38.81 134C38.8656 134 38.9204 133.986 38.9693 133.96C39.0181 133.933 39.0594 133.894 39.0893 133.848C39.1193 133.801 39.1369 133.747 39.1405 133.691C39.1441 133.636 39.1336 133.58 39.11 133.53L37.5 130.06C37.4746 130.002 37.4332 129.953 37.3806 129.918C37.328 129.883 37.2664 129.863 37.2032 129.862C37.14 129.861 37.0778 129.878 37.0241 129.912C36.9703 129.945 36.9273 129.993 36.9 130.05L35.26 133.52Z" stroke="#79174B" stroke-width="2"/>
<path d="M98.31 0H118.06C117.993 0.08 117.933 0.16 117.88 0.24C117.76 0.426667 117.81 0.54 118.03 0.58C120.35 1.02 122.673 1.06333 125 0.71C153.667 2.52333 181.43 8.04667 208.29 17.28C208.528 17.3643 208.737 17.5125 208.896 17.7084C209.055 17.9042 209.157 18.1401 209.19 18.39C210.53 29.04 211.21 38.93 211.14 50.31C210.94 84.01 210.91 117.71 211.05 151.41C211.05 151.743 210.96 152.05 210.78 152.33C188.96 186.07 153.32 209.74 115.4 222.99C115.187 223.07 115.03 223.213 114.93 223.42C114.82 223.65 114.65 223.78 114.39 223.68C75.39 209.29 40.94 182.77 13.11 152.29C12.8833 152.043 12.8267 151.763 12.94 151.45C13.39 150.18 12.75 149.27 12.75 148.17C12.7433 112.863 12.82 77.5567 12.98 42.25C13.0133 34.7967 13.5833 27.3667 14.69 19.96C14.7269 19.7174 14.825 19.4877 14.9752 19.2919C15.1255 19.0962 15.3232 18.9408 15.55 18.84C40.02 7.95 64.2 3.14 90.75 0.54C93.35 1.38667 95.87 1.20667 98.31 0ZM27.79 22.75C27.5033 23.2367 27.3467 24.32 27.32 26C27.1867 34.94 26.96 44.22 26.64 53.84C26.6067 54.78 27.06 55.25 28 55.25H29.03C29.4633 55.25 29.6867 55.0333 29.7 54.6L30.25 23.54C83.98 3.25 142.35 6.12 196.83 22.48C197.097 22.56 197.23 22.7367 197.23 23.01L197.25 54.91C197.25 55.3433 197.47 55.5467 197.91 55.52L199.34 55.43C199.78 55.4033 200 55.17 200 54.73V21.48C200 21.2138 199.915 20.9549 199.759 20.7408C199.602 20.5268 199.382 20.3689 199.13 20.29C145.67 3.46 82.03 -0.52 29.06 21.06C28.2867 21.3733 27.8633 21.9367 27.79 22.75ZM41.79 88.94C46.48 88.62 53.79 85.46 53.62 79.79C53.5 75.92 51.29 75.13 48.6 73.07C48.3333 72.87 48.3233 72.66 48.57 72.44C49.76 71.38 51.19 70.37 51.58 68.77C54.88 55.15 22.43 58.19 15.73 58.58C15.37 58.6 15.13 58.78 15.01 59.12C14.6633 60.1133 14.49 61.16 14.49 62.26C14.45 81.2333 14.4667 100.223 14.54 119.23C14.54 119.577 14.71 119.75 15.05 119.75H26.75C27.25 119.75 27.5 119.5 27.5 119V110.22C27.5012 109.964 27.5788 109.714 27.7227 109.502C27.8667 109.29 28.0703 109.126 28.3073 109.031C28.5443 108.936 28.8037 108.915 29.052 108.97C29.3003 109.025 29.5261 109.154 29.7 109.34L37.89 117.99C38.2433 118.363 38.1633 118.543 37.65 118.53L30.12 118.42C29.7267 118.413 29.44 118.583 29.26 118.93L14.37 147.25C14.2835 147.416 14.2414 147.601 14.2479 147.787C14.2544 147.974 14.3091 148.156 14.4069 148.315C14.5046 148.474 14.6419 148.605 14.8055 148.696C14.9691 148.786 15.1532 148.832 15.34 148.83L28.04 148.71C28.3933 148.71 28.6467 148.55 28.8 148.23L31.51 142.46C31.6767 142.107 31.9567 141.93 32.35 141.93L42.35 142.03C42.71 142.037 42.97 142.2 43.13 142.52L45.96 148.16C46.16 148.553 46.4833 148.75 46.93 148.75H61.01C61.0933 148.751 61.1751 148.729 61.2474 148.688C61.3196 148.646 61.3799 148.586 61.4222 148.514C61.4646 148.441 61.4876 148.358 61.4889 148.273C61.4903 148.189 61.47 148.105 61.43 148.03L46.39 120.22C46.21 119.887 46.31 119.72 46.69 119.72H62.73C63.0767 119.72 63.25 119.893 63.25 120.24V148.25C63.25 148.583 63.4167 148.75 63.75 148.75H76C76.1326 148.75 76.2598 148.697 76.3536 148.604C76.4473 148.51 76.5 148.383 76.5 148.25V133.78C76.5 133.107 76.7333 133.013 77.2 133.5L91.32 148.34C91.5733 148.613 91.8867 148.75 92.26 148.75H105C105.333 148.75 105.5 148.583 105.5 148.25V120.02C105.5 119.7 105.66 119.54 105.98 119.54L119.2 119.68C119.323 119.681 119.445 119.658 119.559 119.611C119.673 119.565 119.777 119.496 119.864 119.408C119.951 119.321 120.021 119.217 120.068 119.102C120.116 118.987 120.14 118.864 120.14 118.74V111.98C120.14 111.72 120.038 111.471 119.856 111.287C119.674 111.103 119.427 111 119.17 111H102.5C102.167 111 102 110.833 102 110.5V108.88C102 108.46 102.207 108.25 102.62 108.25H117.75C118.25 108.25 118.5 108 118.5 107.5V100.12C118.5 99.7067 118.29 99.5 117.87 99.5H102.7C102.427 99.5 102.237 99.3733 102.13 99.12C101.717 98.1733 101.923 97.7067 102.75 97.72C107.923 97.7933 113.13 97.79 118.37 97.71C118.737 97.71 118.93 97.5267 118.95 97.16C119.01 96.01 118.44 89.57 119.89 89.85C120.13 89.8967 120.25 90.0433 120.25 90.29V97.37C120.25 97.79 120.457 98 120.87 98H131.74C132.06 98 132.22 98.1633 132.22 98.49L132.21 117.9C132.21 118.3 132.007 118.5 131.6 118.5H129.38C128.967 118.5 128.76 118.707 128.76 119.12L128.73 148.29C128.73 148.42 128.782 148.545 128.874 148.636C128.965 148.728 129.09 148.78 129.22 148.78H141.77C141.834 148.78 141.897 148.767 141.956 148.742C142.015 148.717 142.068 148.68 142.113 148.633C142.158 148.586 142.193 148.531 142.216 148.471C142.24 148.41 142.251 148.345 142.25 148.28L142 133.27C142.001 133.231 142.013 133.193 142.035 133.16C142.057 133.128 142.088 133.103 142.124 133.088C142.16 133.073 142.2 133.069 142.238 133.077C142.277 133.084 142.312 133.103 142.34 133.13L156.58 148.08C157.04 148.56 157.6 148.8 158.26 148.8L170.21 148.77C170.503 148.77 170.657 148.62 170.67 148.32C170.99 138.66 171.027 129 170.78 119.34C170.67 114.86 171.36 110.51 171.78 106.08C171.82 105.613 171.937 105.593 172.13 106.02L177.36 117.6C177.48 117.853 177.443 118.083 177.25 118.29C175.64 119.97 176.52 147.23 176.52 148.06C176.527 148.513 176.76 148.74 177.22 148.74L208.1 148.77C208.513 148.77 208.723 148.563 208.73 148.15L208.8 140.75C208.8 140.417 208.637 140.25 208.31 140.25H191.25C190.917 140.25 190.75 140.083 190.75 139.75V119C190.75 118.667 190.583 118.5 190.25 118.5H188.93C188.497 118.5 188.377 118.307 188.57 117.92L195.13 105.1C195.53 104.313 195.757 104.36 195.81 105.24L196.57 118.81C196.597 119.33 196.867 119.593 197.38 119.6L207.95 119.81C208.403 119.817 208.64 119.593 208.66 119.14C209.033 109.793 208.667 100.477 207.56 91.19C207.46 90.27 207.51 90.22 208.28 89.81C208.587 89.65 208.74 89.3967 208.74 89.05L208.77 58.89C208.77 58.4633 208.56 58.25 208.14 58.25H196.11C195.683 58.25 195.47 58.4633 195.47 58.89L195.56 73.03C195.56 73.2433 195.49 73.2733 195.35 73.12L181.71 58.64C181.47 58.38 181.173 58.25 180.82 58.25H166.89C166.477 58.25 166.27 58.4533 166.27 58.86L166.2 88.69C166.2 88.7985 166.179 88.906 166.137 89.0061C166.096 89.1063 166.035 89.1971 165.959 89.2734C165.883 89.3497 165.792 89.4099 165.693 89.4505C165.594 89.4911 165.487 89.5113 165.38 89.51C164.64 89.5 164.17 89.16 163.81 88.49C158.543 78.5967 153.263 68.6733 147.97 58.72C147.803 58.4067 147.543 58.25 147.19 58.25H131.9C131.749 58.2498 131.6 58.2915 131.47 58.3708C131.34 58.4501 131.232 58.5639 131.16 58.7L115.39 89.13C115.3 89.3017 115.155 89.4383 114.978 89.5181C114.801 89.5979 114.602 89.6163 114.414 89.5703C114.225 89.5243 114.058 89.4166 113.937 89.2644C113.817 89.1121 113.751 88.924 113.75 88.73V58.87C113.75 58.4567 113.54 58.25 113.12 58.25H99.95C99.8227 58.25 99.7006 58.3006 99.6106 58.3906C99.5206 58.4806 99.47 58.6027 99.47 58.73L99.51 88.77C99.5128 88.9127 99.4691 89.052 99.3852 89.167C99.3014 89.282 99.1821 89.3666 99.0449 89.4081C98.9078 89.4497 98.7602 89.4461 98.6241 89.3978C98.4881 89.3495 98.3709 89.259 98.29 89.14C95.39 84.81 93.76 78.94 90.26 75.55C89.98 75.2833 90.01 75.0567 90.35 74.87C93.43 73.2 96.22 70.15 95.16 66.38C92.04 55.31 67.08 58.09 58.98 58.58C57.8267 58.6533 57.25 59.27 57.25 60.43L57.27 88.8C57.27 89.1667 57.0867 89.3433 56.72 89.33C51.74 89.15 46.72 89.25 41.77 89.24C38.8367 89.24 38.8433 89.14 41.79 88.94ZM125.75 143.87C125.737 142.399 124.886 140.994 123.384 139.967C121.882 138.939 119.853 138.372 117.742 138.39C116.696 138.399 115.663 138.552 114.699 138.839C113.736 139.127 112.862 139.543 112.127 140.065C111.393 140.587 110.812 141.204 110.418 141.88C110.024 142.557 109.824 143.281 109.83 144.01C109.843 145.481 110.694 146.886 112.196 147.913C113.698 148.941 115.727 149.508 117.838 149.49C118.884 149.481 119.917 149.328 120.881 149.041C121.844 148.753 122.718 148.337 123.453 147.815C124.187 147.293 124.768 146.676 125.162 146C125.556 145.323 125.756 144.599 125.75 143.87ZM115.21 212.5C115.683 213.473 116.54 213.737 117.78 213.29C148.51 202.16 177.76 183.5 196.23 156.44C196.51 156.027 196.427 155.71 195.98 155.49L194.82 154.92C194.467 154.747 194.173 154.82 193.94 155.14C174.89 181.92 146.23 200.18 115.78 211.2C115.627 211.26 115.533 211.37 115.5 211.53C115.467 211.663 115.397 211.737 115.29 211.75C115.27 211.683 115.257 211.59 115.25 211.47C115.23 211.29 115.133 211.17 114.96 211.11C83.56 200.09 55.56 179.12 33.2 154.8C32.94 154.52 32.65 154.487 32.33 154.7L30.98 155.6C30.6133 155.847 30.58 156.137 30.88 156.47C53.68 181.7 81.55 202.29 113.22 213.62C113.527 213.733 113.827 213.72 114.12 213.58C114.593 213.353 114.957 212.993 115.21 212.5Z" fill="#1A1919"/>
<path d="M30.25 23.54C29.6633 22.72 28.8433 22.4567 27.79 22.75C27.8633 21.9367 28.2867 21.3733 29.06 21.06C82.03 -0.52 145.67 3.46 199.13 20.29C199.382 20.3689 199.602 20.5268 199.759 20.7408C199.915 20.9549 200 21.2138 200 21.48V54.73C200 55.17 199.78 55.4033 199.34 55.43L197.91 55.52C197.47 55.5467 197.25 55.3433 197.25 54.91L197.23 23.01C197.23 22.7367 197.097 22.56 196.83 22.48C142.35 6.12 83.98 3.25 30.25 23.54Z" fill="#D8147D"/>
<path d="M41.77 89.24C46.72 89.25 51.74 89.15 56.72 89.33C57.0867 89.3433 57.27 89.1667 57.27 88.8L57.25 60.43C57.25 59.27 57.8267 58.6533 58.98 58.58C67.08 58.09 92.04 55.31 95.16 66.38C96.22 70.15 93.43 73.2 90.35 74.87C90.01 75.0567 89.98 75.2833 90.26 75.55C93.76 78.94 95.39 84.81 98.29 89.14C98.3709 89.259 98.4881 89.3495 98.6241 89.3978C98.7602 89.4461 98.9078 89.4497 99.0449 89.4081C99.1821 89.3666 99.3014 89.282 99.3852 89.167C99.4691 89.052 99.5128 88.9127 99.51 88.77L99.47 58.73C99.47 58.6027 99.5206 58.4806 99.6106 58.3906C99.7006 58.3006 99.8227 58.25 99.95 58.25H113.12C113.54 58.25 113.75 58.4567 113.75 58.87V88.73C113.751 88.924 113.817 89.1121 113.937 89.2644C114.058 89.4166 114.225 89.5243 114.414 89.5703C114.602 89.6163 114.801 89.5979 114.978 89.5181C115.155 89.4383 115.3 89.3017 115.39 89.13L131.16 58.7C131.232 58.5639 131.34 58.4501 131.47 58.3708C131.6 58.2915 131.749 58.2498 131.9 58.25H147.19C147.543 58.25 147.803 58.4067 147.97 58.72C153.263 68.6733 158.543 78.5967 163.81 88.49C164.17 89.16 164.64 89.5 165.38 89.51C165.487 89.5113 165.594 89.4911 165.693 89.4505C165.792 89.4099 165.883 89.3497 165.959 89.2734C166.035 89.1971 166.096 89.1063 166.137 89.0061C166.179 88.906 166.2 88.7985 166.2 88.69L166.27 58.86C166.27 58.4533 166.477 58.25 166.89 58.25H180.82C181.173 58.25 181.47 58.38 181.71 58.64L195.35 73.12C195.49 73.2733 195.56 73.2433 195.56 73.03L195.47 58.89C195.47 58.4633 195.683 58.25 196.11 58.25H208.14C208.56 58.25 208.77 58.4633 208.77 58.89L208.74 89.05C208.74 89.3967 208.587 89.65 208.28 89.81C207.51 90.22 207.46 90.27 207.56 91.19C208.667 100.477 209.033 109.793 208.66 119.14C208.64 119.593 208.403 119.817 207.95 119.81L197.38 119.6C196.867 119.593 196.597 119.33 196.57 118.81L195.81 105.24C195.757 104.36 195.53 104.313 195.13 105.1L188.57 117.92C188.377 118.307 188.497 118.5 188.93 118.5H190.25C190.583 118.5 190.75 118.667 190.75 119V139.75C190.75 140.083 190.917 140.25 191.25 140.25H208.31C208.637 140.25 208.8 140.417 208.8 140.75L208.73 148.15C208.723 148.563 208.513 148.77 208.1 148.77L177.22 148.74C176.76 148.74 176.527 148.513 176.52 148.06C176.52 147.23 175.64 119.97 177.25 118.29C177.443 118.083 177.48 117.853 177.36 117.6L172.13 106.02C171.937 105.593 171.82 105.613 171.78 106.08C171.36 110.51 170.67 114.86 170.78 119.34C171.027 129 170.99 138.66 170.67 148.32C170.657 148.62 170.503 148.77 170.21 148.77L158.26 148.8C157.6 148.8 157.04 148.56 156.58 148.08L142.34 133.13C142.312 133.103 142.277 133.084 142.238 133.077C142.2 133.069 142.16 133.073 142.124 133.088C142.088 133.103 142.057 133.128 142.035 133.16C142.013 133.193 142.001 133.231 142 133.27L142.25 148.28C142.251 148.345 142.24 148.41 142.216 148.471C142.193 148.531 142.158 148.586 142.113 148.633C142.068 148.68 142.015 148.717 141.956 148.742C141.897 148.767 141.834 148.78 141.77 148.78H129.22C129.09 148.78 128.965 148.728 128.874 148.636C128.782 148.545 128.73 148.42 128.73 148.29L128.76 119.12C128.76 118.707 128.967 118.5 129.38 118.5H131.6C132.007 118.5 132.21 118.3 132.21 117.9L132.22 98.49C132.22 98.1633 132.06 98 131.74 98H120.87C120.457 98 120.25 97.79 120.25 97.37V90.29C120.25 90.0433 120.13 89.8967 119.89 89.85C118.44 89.57 119.01 96.01 118.95 97.16C118.93 97.5267 118.737 97.71 118.37 97.71C113.13 97.79 107.923 97.7933 102.75 97.72C101.923 97.7067 101.717 98.1733 102.13 99.12C102.237 99.3733 102.427 99.5 102.7 99.5H117.87C118.29 99.5 118.5 99.7067 118.5 100.12V107.5C118.5 108 118.25 108.25 117.75 108.25H102.62C102.207 108.25 102 108.46 102 108.88V110.5C102 110.833 102.167 111 102.5 111H119.17C119.427 111 119.674 111.103 119.856 111.287C120.038 111.471 120.14 111.72 120.14 111.98V118.74C120.14 118.864 120.116 118.987 120.068 119.102C120.021 119.217 119.951 119.321 119.864 119.408C119.777 119.496 119.673 119.565 119.559 119.611C119.445 119.658 119.323 119.681 119.2 119.68L105.98 119.54C105.66 119.54 105.5 119.7 105.5 120.02V148.25C105.5 148.583 105.333 148.75 105 148.75H92.26C91.8867 148.75 91.5733 148.613 91.32 148.34L77.2 133.5C76.7333 133.013 76.5 133.107 76.5 133.78V148.25C76.5 148.383 76.4473 148.51 76.3535 148.604C76.2598 148.697 76.1326 148.75 76 148.75H63.75C63.4167 148.75 63.25 148.583 63.25 148.25V120.24C63.25 119.893 63.0767 119.72 62.73 119.72H46.69C46.31 119.72 46.21 119.887 46.39 120.22L61.43 148.03C61.47 148.105 61.4903 148.189 61.4889 148.273C61.4876 148.358 61.4646 148.441 61.4222 148.514C61.3799 148.586 61.3196 148.646 61.2473 148.688C61.1751 148.729 61.0933 148.751 61.01 148.75H46.93C46.4833 148.75 46.16 148.553 45.96 148.16L43.13 142.52C42.97 142.2 42.71 142.037 42.35 142.03L32.35 141.93C31.9567 141.93 31.6767 142.107 31.51 142.46L28.8 148.23C28.6467 148.55 28.3933 148.71 28.04 148.71L15.34 148.83C15.1532 148.832 14.969 148.786 14.8055 148.696C14.6419 148.605 14.5046 148.474 14.4069 148.315C14.3091 148.156 14.2544 147.974 14.2479 147.787C14.2414 147.601 14.2835 147.416 14.37 147.25L29.26 118.93C29.44 118.583 29.7267 118.413 30.12 118.42L37.65 118.53C38.1633 118.543 38.2433 118.363 37.89 117.99L29.7 109.34C29.5261 109.154 29.3003 109.025 29.052 108.97C28.8037 108.915 28.5443 108.936 28.3073 109.031C28.0703 109.126 27.8667 109.29 27.7227 109.502C27.5788 109.714 27.5012 109.964 27.5 110.22V119C27.5 119.5 27.25 119.75 26.75 119.75H15.05C14.71 119.75 14.54 119.577 14.54 119.23C14.4667 100.223 14.45 81.2333 14.49 62.26C14.49 61.16 14.6633 60.1133 15.01 59.12C15.13 58.78 15.37 58.6 15.73 58.58C22.43 58.19 54.88 55.15 51.58 68.77C51.19 70.37 49.76 71.38 48.57 72.44C48.3233 72.66 48.3333 72.87 48.6 73.07C51.29 75.13 53.5 75.92 53.62 79.79C53.79 85.46 46.48 88.62 41.79 88.94C38.8433 89.14 38.8367 89.24 41.77 89.24ZM37.29 67.35C36 66.18 30.72 66.42 29.31 66.57C28.9367 66.61 28.75 66.82 28.75 67.2V68.72C28.75 69 28.89 69.1567 29.17 69.19C31.8967 69.49 34.54 69.1967 37.1 68.31C37.1929 68.2768 37.2755 68.2201 37.3399 68.1454C37.4043 68.0707 37.4482 67.9806 37.4674 67.8839C37.4865 67.7872 37.4802 67.6871 37.4491 67.5935C37.4181 67.5 37.3632 67.416 37.29 67.35ZM79.47 66.95L72.33 66.4C71.9433 66.3733 71.75 66.55 71.75 66.93V69.99C71.75 70.3233 71.92 70.4967 72.26 70.51C73.78 70.56 81.21 70.96 80.69 68.06C80.6377 67.7649 80.4895 67.4956 80.2686 67.2946C80.0477 67.0936 79.7667 66.9724 79.47 66.95ZM140.72 74.39C140.887 74.49 141.063 74.5267 141.25 74.5C141.537 74.4533 141.617 74.3 141.49 74.04L139.6 70.2C139.413 69.82 139.223 69.82 139.03 70.2L137.35 73.6C137.137 74.0333 137.273 74.25 137.76 74.25H140.21C140.397 74.25 140.567 74.2967 140.72 74.39ZM194.37 88.9L179.98 73.68C179.787 73.4733 179.69 73.5133 179.69 73.8L179.78 88.84C179.78 88.9621 179.756 89.0831 179.709 89.1959C179.662 89.3087 179.594 89.4113 179.508 89.4976C179.421 89.584 179.319 89.6525 179.206 89.6992C179.093 89.7459 178.972 89.77 178.85 89.77H177.76C177.247 89.77 177.1 90 177.32 90.46L183.7 103.89C183.86 104.237 184.023 104.24 184.19 103.9C186.403 99.4133 188.667 94.9367 190.98 90.47C191.673 89.1367 192.637 88.8267 193.87 89.54C193.956 89.5896 194.056 89.6065 194.153 89.5877C194.251 89.5689 194.338 89.5156 194.399 89.4376C194.459 89.3596 194.49 89.2623 194.485 89.1635C194.48 89.0647 194.439 88.9711 194.37 88.9ZM38.16 78.8C35.08 77.92 32.8 77.28 29.5 77.91C29.1667 77.97 29 78.17 29 78.51V81.29C29 81.69 29.2033 81.8867 29.61 81.88C32.16 81.8 38.76 81.84 38.49 79.19C38.4633 78.99 38.3533 78.86 38.16 78.8ZM78.08 79.88C78.055 79.8298 78.0184 79.7864 77.9731 79.7533C77.9279 79.7203 77.8754 79.6985 77.82 79.69L72.16 78.7C72.1093 78.6912 72.0572 78.6936 72.0076 78.7072C71.9579 78.7208 71.9119 78.7452 71.8727 78.7786C71.8336 78.812 71.8023 78.8537 71.781 78.9006C71.7598 78.9475 71.7492 78.9985 71.75 79.05V88.93C71.75 89.0228 71.7869 89.1119 71.8525 89.1775C71.9182 89.2431 72.0072 89.28 72.1 89.28L82.05 89.34C82.1094 89.3406 82.1679 89.3262 82.2201 89.298C82.2724 89.2697 82.3166 89.2287 82.3486 89.1787C82.3806 89.1287 82.3993 89.0714 82.4031 89.0121C82.4068 88.9529 82.3954 88.8936 82.37 88.84L78.08 79.88ZM133.93 82.75C133.874 82.7501 133.818 82.7661 133.771 82.7961C133.723 82.8262 133.684 82.8691 133.66 82.92L130.8 88.85C130.778 88.8957 130.768 88.9462 130.771 88.9969C130.774 89.0475 130.789 89.0966 130.816 89.1395C130.843 89.1825 130.881 89.2179 130.925 89.2425C130.969 89.267 131.019 89.2799 131.07 89.28L147.91 89.24C147.961 89.2391 148.011 89.2251 148.056 89.1993C148.1 89.1735 148.137 89.1368 148.163 89.0927C148.189 89.0485 148.203 88.9985 148.205 88.9473C148.206 88.896 148.194 88.8453 148.17 88.8L145.13 82.91C145.105 82.8625 145.068 82.8226 145.022 82.7945C144.976 82.7663 144.924 82.751 144.87 82.75H133.93ZM88.5 119.07V90.37C88.5 89.95 88.29 89.75 87.87 89.77L85.04 89.89C84.68 89.9033 84.5 90.0933 84.5 90.46V97.25C84.5 97.5833 84.3333 97.75 84 97.75H68.13C67.71 97.75 67.5 97.96 67.5 98.38V99.13C67.5 99.5567 67.71 99.77 68.13 99.77L82.86 99.72C83.2867 99.72 83.5 99.9333 83.5 100.36V107.75C83.5 108.083 83.3333 108.25 83 108.25H68C67.6667 108.25 67.5 108.417 67.5 108.75V110.54C67.5 110.9 67.68 111.08 68.04 111.08L84.9 111.3C85.3 111.307 85.5 111.507 85.5 111.9V118.87C85.5 119.29 85.2933 119.5 84.88 119.5H79.82C79.2667 119.5 79.1833 119.697 79.57 120.09L91.94 132.85C92.1467 133.063 92.25 133.023 92.25 132.73V120.05C92.25 119.57 92.0133 119.367 91.54 119.44L89.32 119.77C88.7733 119.85 88.5 119.617 88.5 119.07ZM157.56 97.34C157.561 97.4262 157.545 97.5118 157.513 97.5918C157.481 97.6718 157.434 97.7447 157.373 97.8061C157.313 97.8675 157.241 97.9163 157.161 97.9496C157.082 97.9829 156.996 98 156.91 98H146.02C145.7 98 145.54 98.16 145.54 98.48L145.42 120.04C145.42 120.347 145.527 120.607 145.74 120.82L157.31 132.51C157.537 132.743 157.65 132.697 157.65 132.37C157.743 118.35 158.8 104.4 160.82 90.52C160.887 90.0667 160.693 89.8333 160.24 89.82L158.13 89.73C157.683 89.71 157.463 89.9233 157.47 90.37L157.56 97.34ZM27.36 98.25C27.3576 98.3112 27.3734 98.3718 27.4054 98.4241C27.4374 98.4764 27.4842 98.518 27.5399 98.5437C27.5955 98.5693 27.6575 98.5779 27.7181 98.5684C27.7786 98.5588 27.835 98.5316 27.88 98.49L36.5 90.56C36.546 90.5184 36.5785 90.4641 36.5933 90.4038C36.6081 90.3436 36.6045 90.2804 36.583 90.2222C36.5614 90.1641 36.523 90.1137 36.4725 90.0777C36.4221 90.0416 36.362 90.0215 36.3 90.02L28.19 89.86C28.1111 89.8598 28.0352 89.8897 27.9776 89.9436C27.92 89.9975 27.8851 90.0713 27.88 90.15L27.36 98.25ZM53.38 117C53.4228 117.043 53.4772 117.073 53.5367 117.085C53.5961 117.098 53.6579 117.092 53.7143 117.07C53.7707 117.048 53.8194 117.009 53.8542 116.959C53.889 116.91 53.9084 116.851 53.91 116.79L54.06 91.59C54.0591 91.5324 54.0422 91.4762 54.0111 91.4277C53.98 91.3792 53.9361 91.3404 53.8842 91.3154C53.8323 91.2905 53.7744 91.2806 53.7172 91.2867C53.6599 91.2928 53.6055 91.3147 53.56 91.35L39.35 102.47C39.3142 102.497 39.2847 102.531 39.2634 102.571C39.2422 102.61 39.2297 102.653 39.2268 102.698C39.224 102.743 39.2308 102.787 39.2469 102.829C39.263 102.871 39.2879 102.909 39.32 102.94L53.38 117ZM35.26 133.52C35.2364 133.57 35.2259 133.626 35.2295 133.681C35.2331 133.737 35.2507 133.791 35.2807 133.838C35.3106 133.884 35.3519 133.923 35.4007 133.95C35.4496 133.976 35.5044 133.99 35.56 133.99L38.81 134C38.8656 134 38.9204 133.986 38.9693 133.96C39.0181 133.933 39.0594 133.894 39.0893 133.848C39.1193 133.801 39.1369 133.747 39.1405 133.691C39.1441 133.636 39.1336 133.58 39.11 133.53L37.5 130.06C37.4746 130.002 37.4332 129.953 37.3806 129.918C37.328 129.883 37.2664 129.863 37.2032 129.862C37.14 129.861 37.0778 129.878 37.0241 129.912C36.9703 129.945 36.9273 129.993 36.9 130.05L35.26 133.52Z" fill="#D8147D"/>
<path d="M29.31 66.57C30.72 66.42 36 66.18 37.29 67.35C37.3632 67.416 37.4181 67.5 37.4491 67.5935C37.4802 67.6871 37.4865 67.7872 37.4674 67.8839C37.4482 67.9806 37.4043 68.0707 37.3399 68.1454C37.2755 68.2201 37.1929 68.2768 37.1 68.31C34.54 69.1967 31.8967 69.49 29.17 69.19C28.89 69.1567 28.75 69 28.75 68.72V67.2C28.75 66.82 28.9367 66.61 29.31 66.57Z" fill="#1A1919"/>
<path d="M79.47 66.95C79.7667 66.9724 80.0477 67.0936 80.2686 67.2946C80.4895 67.4956 80.6377 67.7649 80.69 68.06C81.21 70.96 73.78 70.56 72.26 70.51C71.92 70.4967 71.75 70.3233 71.75 69.99V66.93C71.75 66.55 71.9433 66.3733 72.33 66.4L79.47 66.95Z" fill="#1A1919"/>
<path d="M140.21 74.25H137.76C137.273 74.25 137.137 74.0333 137.35 73.6L139.03 70.2C139.223 69.82 139.413 69.82 139.6 70.2L141.49 74.04C141.617 74.3 141.537 74.4533 141.25 74.5C141.063 74.5267 140.887 74.49 140.72 74.39C140.567 74.2967 140.397 74.25 140.21 74.25Z" fill="#1A1919"/>
<path d="M194.37 88.9C194.439 88.9711 194.48 89.0647 194.485 89.1635C194.49 89.2623 194.459 89.3596 194.399 89.4376C194.338 89.5156 194.251 89.5689 194.153 89.5877C194.056 89.6065 193.956 89.5896 193.87 89.54C192.637 88.8267 191.673 89.1367 190.98 90.47C188.667 94.9367 186.403 99.4133 184.19 103.9C184.023 104.24 183.86 104.237 183.7 103.89L177.32 90.46C177.1 90 177.247 89.77 177.76 89.77H178.85C178.972 89.77 179.093 89.7459 179.206 89.6992C179.319 89.6525 179.421 89.584 179.508 89.4976C179.594 89.4112 179.662 89.3087 179.709 89.1959C179.756 89.0831 179.78 88.9621 179.78 88.84L179.69 73.8C179.69 73.5133 179.787 73.4733 179.98 73.68L194.37 88.9Z" fill="#1A1919"/>
<path d="M29.5 77.91C32.8 77.28 35.08 77.92 38.16 78.8C38.3533 78.86 38.4633 78.99 38.49 79.19C38.76 81.84 32.16 81.8 29.61 81.88C29.2033 81.8867 29 81.69 29 81.29V78.51C29 78.17 29.1667 77.97 29.5 77.91Z" fill="#1A1919"/>
<path d="M78.08 79.88L82.37 88.84C82.3955 88.8936 82.4068 88.9529 82.4031 89.0121C82.3993 89.0714 82.3806 89.1287 82.3486 89.1787C82.3166 89.2287 82.2724 89.2697 82.2202 89.298C82.1679 89.3262 82.1094 89.3406 82.05 89.34L72.1 89.28C72.0072 89.28 71.9182 89.2431 71.8525 89.1775C71.7869 89.1119 71.75 89.0228 71.75 88.93V79.05C71.7492 78.9985 71.7598 78.9475 71.7811 78.9006C71.8023 78.8537 71.8336 78.812 71.8727 78.7786C71.9119 78.7452 71.9579 78.7208 72.0076 78.7072C72.0572 78.6936 72.1093 78.6912 72.16 78.7L77.82 79.69C77.8754 79.6985 77.9279 79.7203 77.9732 79.7533C78.0184 79.7864 78.055 79.8298 78.08 79.88Z" fill="#1A1919"/>
<path d="M133.93 82.75H144.87C144.924 82.751 144.976 82.7663 145.022 82.7945C145.068 82.8226 145.105 82.8625 145.13 82.91L148.17 88.8C148.194 88.8453 148.206 88.896 148.205 88.9473C148.203 88.9985 148.189 89.0485 148.163 89.0927C148.137 89.1368 148.1 89.1735 148.056 89.1993C148.011 89.2251 147.961 89.2391 147.91 89.24L131.07 89.28C131.019 89.2799 130.969 89.267 130.925 89.2425C130.881 89.2179 130.843 89.1825 130.816 89.1395C130.789 89.0966 130.774 89.0475 130.771 88.9969C130.768 88.9462 130.778 88.8957 130.8 88.85L133.66 82.92C133.684 82.8691 133.723 82.8262 133.771 82.7961C133.818 82.7661 133.874 82.7501 133.93 82.75Z" fill="#1A1919"/>
<path d="M89.32 119.77L91.54 119.44C92.0133 119.367 92.25 119.57 92.25 120.05V132.73C92.25 133.023 92.1467 133.063 91.94 132.85L79.57 120.09C79.1833 119.697 79.2667 119.5 79.82 119.5H84.88C85.2933 119.5 85.5 119.29 85.5 118.87V111.9C85.5 111.507 85.3 111.307 84.9 111.3L68.04 111.08C67.68 111.08 67.5 110.9 67.5 110.54V108.75C67.5 108.417 67.6667 108.25 68 108.25H83C83.3333 108.25 83.5 108.083 83.5 107.75V100.36C83.5 99.9333 83.2867 99.72 82.86 99.72L68.13 99.77C67.71 99.77 67.5 99.5567 67.5 99.13V98.38C67.5 97.96 67.71 97.75 68.13 97.75H84C84.3333 97.75 84.5 97.5833 84.5 97.25V90.46C84.5 90.0933 84.68 89.9033 85.04 89.89L87.87 89.77C88.29 89.75 88.5 89.95 88.5 90.37V119.07C88.5 119.617 88.7733 119.85 89.32 119.77Z" fill="#1A1919"/>
<path d="M157.56 97.34L157.47 90.37C157.463 89.9233 157.683 89.71 158.13 89.73L160.24 89.82C160.693 89.8333 160.887 90.0667 160.82 90.52C158.8 104.4 157.743 118.35 157.65 132.37C157.65 132.697 157.537 132.743 157.31 132.51L145.74 120.82C145.527 120.607 145.42 120.347 145.42 120.04L145.54 98.48C145.54 98.16 145.7 98 146.02 98H156.91C156.996 98 157.082 97.9829 157.161 97.9496C157.241 97.9163 157.313 97.8675 157.373 97.8061C157.434 97.7447 157.481 97.6718 157.513 97.5918C157.545 97.5118 157.561 97.4262 157.56 97.34Z" fill="#1A1919"/>
<path d="M27.36 98.25L27.88 90.15C27.8851 90.0713 27.92 89.9975 27.9776 89.9436C28.0352 89.8897 28.1111 89.8598 28.19 89.86L36.3 90.02C36.362 90.0215 36.4221 90.0416 36.4725 90.0777C36.523 90.1137 36.5614 90.1641 36.583 90.2222C36.6045 90.2804 36.6081 90.3436 36.5933 90.4038C36.5785 90.4641 36.546 90.5185 36.5 90.56L27.88 98.49C27.835 98.5316 27.7786 98.5588 27.7181 98.5684C27.6575 98.5779 27.5955 98.5693 27.5398 98.5437C27.4842 98.518 27.4374 98.4764 27.4054 98.4241C27.3734 98.3718 27.3576 98.3112 27.36 98.25Z" fill="#1A1919"/>
<path d="M53.38 117L39.32 102.94C39.2879 102.909 39.263 102.871 39.2469 102.829C39.2308 102.787 39.224 102.743 39.2268 102.698C39.2297 102.653 39.2422 102.61 39.2634 102.571C39.2847 102.531 39.3142 102.497 39.35 102.47L53.56 91.35C53.6055 91.3147 53.6599 91.2928 53.7172 91.2867C53.7744 91.2806 53.8323 91.2905 53.8842 91.3154C53.9361 91.3404 53.9801 91.3792 54.0111 91.4277C54.0422 91.4762 54.0591 91.5324 54.06 91.59L53.91 116.79C53.9084 116.851 53.889 116.91 53.8542 116.959C53.8194 117.009 53.7708 117.048 53.7143 117.07C53.6579 117.092 53.5961 117.098 53.5367 117.085C53.4772 117.073 53.4228 117.043 53.38 117Z" fill="#1A1919"/>
<path d="M35.26 133.52L36.9 130.05C36.9273 129.993 36.9703 129.945 37.0241 129.912C37.0778 129.878 37.14 129.861 37.2032 129.862C37.2664 129.863 37.328 129.883 37.3806 129.918C37.4332 129.953 37.4746 130.002 37.5 130.06L39.11 133.53C39.1336 133.58 39.1441 133.636 39.1405 133.691C39.1369 133.747 39.1193 133.801 39.0893 133.848C39.0594 133.894 39.0181 133.933 38.9693 133.96C38.9204 133.986 38.8656 134 38.81 134L35.56 133.99C35.5044 133.99 35.4496 133.976 35.4007 133.95C35.3519 133.923 35.3106 133.884 35.2807 133.838C35.2507 133.791 35.2331 133.737 35.2295 133.681C35.2259 133.626 35.2364 133.57 35.26 133.52Z" fill="#1A1919"/>
<path d="M117.838 149.49C122.234 149.451 125.776 146.936 125.75 143.871C125.723 140.805 122.138 138.352 117.742 138.39C113.346 138.429 109.804 140.944 109.83 144.009C109.857 147.075 113.442 149.528 117.838 149.49Z" fill="#D8147D"/>
<path d="M115.21 212.5L115.29 211.75C115.397 211.737 115.467 211.663 115.5 211.53C115.533 211.37 115.627 211.26 115.78 211.2C146.23 200.18 174.89 181.92 193.94 155.14C194.173 154.82 194.467 154.747 194.82 154.92L195.98 155.49C196.427 155.71 196.51 156.027 196.23 156.44C177.76 183.5 148.51 202.16 117.78 213.29C116.54 213.737 115.683 213.473 115.21 212.5Z" fill="#D8147D"/>
</g>
<defs>
<clipPath id="clip0_4_2">
<rect width="224" height="224" fill="white"/>
</clipPath>
</defs>
</svg>
